<?xml version="1.0" encoding="utf-8"?>
<!-- Generator: Adobe Illustrator 19.2.0, SVG Export Plug-In . SVG Version: 6.00 Build 0)  -->
<svg version="1.1" id="Calque_1" xmlns="http://www.w3.org/2000/svg" xmlns:xlink="http://www.w3.org/1999/xlink" x="0px" y="0px"
	 viewBox="0 0 559.5 150.3" style="enable-background:new 0 0 559.5 150.3;" xml:space="preserve">
<style type="text/css">
	.st0{fill:#00758D;}
</style>
<g>
	<path class="st0" d="M340.1,54.7L328,66.8c3.7,3.7,6,8.5,6.3,13.3c0.3,4.4-1,8.3-3.8,11.1c-2.8,2.8-6.7,4.1-11.1,3.8
		c-4.8-0.3-9.5-2.6-13.3-6.3L294,100.7c6.7,6.7,15.3,10.7,24.2,11.3c0.8,0.1,1.6,0.1,2.4,0.1c8.4,0,16.2-3.1,21.9-8.9
		c6.3-6.3,9.4-15,8.8-24.4C350.8,70,346.8,61.3,340.1,54.7"/>
	<path class="st0" d="M327.9,66.8c-4.3-4.3-5.1-10.7-1.8-13.9c3.3-3.3,9.7-2.5,13.9,1.8l12.1-12.1c-11-11-28.1-11.8-38.2-1.8
		c-10,10-9.2,27.2,1.8,38.2L327.9,66.8z"/>
	<path class="st0" d="M262.6,50.7c7.8,0,14.5,5.8,17.2,13.9h-34.4C248.1,56.5,254.8,50.7,262.6,50.7 M298.1,72.9
		c0-21.6-15.9-39.1-35.5-39.1c-19.6,0-35.5,17.6-35.5,39.1S243,112,262.6,112v-17c-7.5,0-14-5.4-16.9-13.1h43.1v0h8.4
		C297.8,79.1,298.1,76,298.1,72.9"/>
	<path class="st0" d="M37.4,50.7c7.8,0,14.5,5.8,17.2,13.9H20.1C22.9,56.5,29.6,50.7,37.4,50.7 M72.9,72.9
		c0-21.6-15.9-39.1-35.5-39.1c-19.6,0-35.5,17.6-35.5,39.1S17.8,112,37.4,112v-17c-7.5,0-14-5.4-16.9-13.1h43.1v0h8.4
		C72.5,79.1,72.9,76,72.9,72.9"/>
	<path class="st0" d="M172,95.1c-10.2,0-18.6-10-18.6-22.2c0-12.2,8.3-22.2,18.6-22.2c10.2,0,18.6,10,18.6,22.2
		C190.6,85.1,182.3,95.1,172,95.1 M211.2,94.5V18.7V1.3h-20.6h-12.4v17.4h12.4v20.9c-5.4-3.7-11.8-5.8-18.6-5.8
		c-19.6,0-35.5,17.6-35.5,39.1S152.5,112,172,112c7.6,0,14.7-2.7,20.5-7.2l1.2,7h29.1V94.5H211.2z"/>
	<path class="st0" d="M114.7,54.7l-12.1,12.1c3.7,3.7,6,8.5,6.3,13.3c0.3,4.4-1,8.3-3.8,11.1c-2.8,2.8-6.7,4.1-11.1,3.8
		c-4.8-0.3-9.5-2.6-13.3-6.3l-12.1,12.1c6.7,6.7,15.3,10.7,24.2,11.3c0.8,0.1,1.6,0.1,2.4,0.1c8.4,0,16.2-3.1,21.9-8.9
		c6.3-6.3,9.4-15,8.8-24.4C125.4,70,121.4,61.3,114.7,54.7"/>
	<path class="st0" d="M102.6,66.8c-4.3-4.3-5.1-10.7-1.8-13.9c3.3-3.3,9.7-2.5,13.9,1.8l12.1-12.1c-11-11-28.1-11.8-38.2-1.8
		c-10,10-9.2,27.2,1.8,38.2L102.6,66.8z"/>
</g>
<polygon class="st0" points="389.5,17.6 389.5,17.6 389.5,17.6 "/>
<g>
	<path class="st0" d="M380.9,15.9c-1.1,0-1.7,0.8-1.7,1.7c0,0.9,0.6,1.6,1.7,1.6c1.1,0,1.7-0.7,1.7-1.6
		C382.5,16.6,381.9,15.9,380.9,15.9"/>
	<path class="st0" d="M394.2,21.2h-2.6v-3.6c0-0.7,0.1-1.9-1.2-1.9c-1.1,0-1.4,0.8-1.4,1.7v3.8h-2.6v-7.3h2.6v0.9h0
		c0.6-0.9,1.3-1.2,2.3-1.2c2,0,2.8,1.2,2.8,3V21.2z M380.9,21.4c-2.3,0-4.4-1.4-4.4-3.9c0-2.5,2.1-3.9,4.4-3.9
		c2.4,0,4.4,1.4,4.4,3.9C385.3,20,383.2,21.4,380.9,21.4 M370.5,24.8h-2.9l2.5-4.7l-3.5-6.3h3l2,3.8l1.9-3.8h3L370.5,24.8z
		 M367.3,21.2h-6.2V10.4h2.8v8.4h3.4V21.2z M393.9,1.3h-41.7V25l9.3,8.9h41.7V10.2L393.9,1.3z"/>
</g>
<polygon points="2,135 2,136.4 5.2,136.4 5.2,148 6.6,148 6.6,136.4 9.8,136.4 9.8,135 "/>
<polygon points="22.8,135 22.8,140.3 16.2,140.3 16.2,135 14.8,135 14.8,148 16.2,148 16.2,141.6 22.8,141.6 22.8,148 24.3,148 
	24.3,135 "/>
<polygon points="30.4,135 30.4,148 37.1,148 37.1,146.6 31.8,146.6 31.8,141.6 36.9,141.6 36.9,140.2 31.8,140.2 31.8,136.4 
	37.1,136.4 37.1,135 "/>
<g>
	<path d="M53.1,146.6h1.4c1.6,0,3.3-0.4,3.3-2.4c0-2-1.9-2.3-3.5-2.3h-1.3V146.6z M53.1,140.7h0.6c1.6,0,3-0.2,3-2.2
		c0-2-1.2-2.2-3-2.2h-0.6V140.7z M51.7,135h2.1c2.4,0,4.3,0.9,4.3,3.5c0,1-0.4,1.9-1.3,2.5c1.5,0.4,2.5,1.8,2.5,3.3
		c0,2.6-2.1,3.6-4.6,3.6h-3V135z"/>
	<path d="M66.3,142.7c0,1,0,2.1,0.6,2.9c0.6,0.8,1.7,1.2,2.6,1.2c0.9,0,1.9-0.4,2.5-1.1c0.7-0.8,0.6-2,0.6-3V135H74v8.1
		c0,1.4-0.1,2.5-1.1,3.6c-0.9,1-2.2,1.5-3.5,1.5c-1.2,0-2.5-0.5-3.3-1.3c-1.1-1.1-1.3-2.3-1.3-3.7V135h1.4V142.7z"/>
	<path d="M85.9,137.6c-0.5-0.9-1.1-1.4-2.2-1.4c-1.1,0-2.1,0.8-2.1,2c0,1.1,1.1,1.6,2,2l0.9,0.4c1.7,0.7,3.1,1.6,3.1,3.6
		c0,2.3-1.8,4-4.1,4c-2.1,0-3.6-1.3-4-3.3l1.4-0.4c0.2,1.3,1.2,2.4,2.6,2.4s2.7-1.1,2.7-2.5c0-1.5-1.2-2-2.4-2.6l-0.8-0.3
		c-1.5-0.7-2.8-1.5-2.8-3.3c0-2,1.7-3.3,3.6-3.3c1.4,0,2.7,0.7,3.3,2L85.9,137.6z"/>
</g>
<rect x="93.1" y="135" width="1.4" height="12.9"/>
<polygon points="100.7,148 102.1,148 102.1,138 112.2,148.6 112.2,135 110.8,135 110.8,145.1 100.7,134.5 "/>
<polygon points="118.3,135 118.3,148 125,148 125,146.6 119.8,146.6 119.8,141.6 124.9,141.6 124.9,140.2 119.8,140.2 119.8,136.4 
	125,136.4 125,135 "/>
<g>
	<path d="M136.8,137.6c-0.5-0.9-1.1-1.4-2.2-1.4c-1.2,0-2.1,0.8-2.1,2c0,1.1,1.1,1.6,2,2l0.9,0.4c1.7,0.7,3.1,1.6,3.1,3.6
		c0,2.3-1.8,4-4.1,4c-2.1,0-3.6-1.3-4-3.3l1.4-0.4c0.2,1.3,1.2,2.4,2.6,2.4s2.7-1.1,2.7-2.5c0-1.5-1.2-2-2.4-2.6l-0.8-0.3
		c-1.5-0.7-2.8-1.5-2.8-3.3c0-2,1.7-3.3,3.6-3.3c1.4,0,2.7,0.7,3.3,2L136.8,137.6z"/>
	<path d="M149.8,137.6c-0.5-0.9-1.1-1.4-2.2-1.4c-1.2,0-2.1,0.8-2.1,2c0,1.1,1.1,1.6,2,2l0.9,0.4c1.7,0.7,3.1,1.6,3.1,3.6
		c0,2.3-1.8,4-4.1,4c-2.1,0-3.6-1.3-4-3.3l1.4-0.4c0.2,1.3,1.2,2.4,2.6,2.4c1.4,0,2.7-1.1,2.7-2.5c0-1.5-1.2-2-2.4-2.6l-0.8-0.3
		c-1.5-0.7-2.8-1.5-2.8-3.3c0-2,1.7-3.3,3.6-3.3c1.4,0,2.7,0.7,3.3,2L149.8,137.6z"/>
	<path d="M171.6,137.6c-0.5-0.9-1.1-1.4-2.2-1.4c-1.2,0-2.1,0.8-2.1,2c0,1.1,1.1,1.6,2,2l0.9,0.4c1.7,0.7,3.1,1.6,3.1,3.6
		c0,2.3-1.8,4-4.1,4c-2.1,0-3.6-1.3-4-3.3l1.4-0.4c0.2,1.3,1.2,2.4,2.6,2.4c1.4,0,2.7-1.1,2.7-2.5c0-1.5-1.2-2-2.4-2.6l-0.8-0.3
		c-1.5-0.7-2.8-1.5-2.8-3.3c0-2,1.7-3.3,3.6-3.3c1.4,0,2.7,0.7,3.3,2L171.6,137.6z"/>
	<path d="M188.6,137.9c-1-1.1-2.5-1.7-3.9-1.7c-2.9,0-5.2,2.5-5.2,5.4c0,2.8,2.4,5.4,5.3,5.4c1.5,0,2.9-0.7,3.9-1.7v1.8
		c-1.1,0.8-2.5,1.3-3.9,1.3c-3.7,0-6.7-3-6.7-6.6c0-3.7,3-6.7,6.7-6.7c1.4,0,2.7,0.4,3.9,1.3V137.9z"/>
</g>
<polygon points="202.6,135 202.6,140.3 196,140.3 196,135 194.5,135 194.5,148 196,148 196,141.6 202.6,141.6 202.6,148 204.1,148 
	204.1,135 "/>
<g>
	<path d="M211,141.5c0,2.9,2.4,5.4,5.3,5.4s5.3-2.4,5.3-5.4c0-2.9-2.3-5.4-5.3-5.4C213.3,136.2,211,138.6,211,141.5 M223,141.5
		c0,3.7-3.1,6.7-6.7,6.7c-3.7,0-6.7-3-6.7-6.7c0-3.7,3.1-6.7,6.7-6.7C219.9,134.8,223,137.8,223,141.5"/>
	<path d="M229.2,141.5c0,2.9,2.4,5.4,5.3,5.4s5.3-2.4,5.3-5.4c0-2.9-2.3-5.4-5.3-5.4S229.2,138.6,229.2,141.5 M241.2,141.5
		c0,3.7-3.1,6.7-6.7,6.7c-3.7,0-6.7-3-6.7-6.7c0-3.7,3.1-6.7,6.7-6.7C238.2,134.8,241.2,137.8,241.2,141.5"/>
</g>
<polygon points="246.6,135 246.6,148 251.6,148 251.6,146.6 248.1,146.6 248.1,135 "/>
<g>
	<path d="M266,141.5c0,2.9,2.4,5.4,5.3,5.4s5.3-2.4,5.3-5.4c0-2.9-2.3-5.4-5.3-5.4C268.3,136.2,266,138.6,266,141.5 M278,141.5
		c0,3.7-3.1,6.7-6.7,6.7s-6.7-3-6.7-6.7c0-3.7,3.1-6.7,6.7-6.7S278,137.8,278,141.5"/>
</g>
<polygon points="283.4,135 283.4,148 284.9,148 284.9,141.6 289.2,141.6 289.2,140.2 284.9,140.2 284.9,136.4 289.3,136.4 
	289.3,135 "/>
<g>
	<path d="M305.2,142.7c0,1,0,2.1,0.6,2.9c0.6,0.8,1.7,1.2,2.6,1.2c0.9,0,1.9-0.4,2.5-1.1c0.7-0.8,0.6-2,0.6-3V135h1.4v8.1
		c0,1.4-0.1,2.5-1.1,3.6c-0.9,1-2.2,1.5-3.5,1.5c-1.2,0-2.5-0.5-3.3-1.3c-1.1-1.1-1.3-2.3-1.3-3.7V135h1.4V142.7z"/>
	<path d="M328.8,137.9c-1-1.1-2.5-1.7-3.9-1.7c-2.9,0-5.2,2.5-5.2,5.4c0,2.8,2.4,5.4,5.3,5.4c1.5,0,2.9-0.7,3.9-1.7v1.8
		c-1.1,0.8-2.5,1.3-3.9,1.3c-3.7,0-6.7-3-6.7-6.6c0-3.7,3-6.7,6.7-6.7c1.4,0,2.7,0.4,3.9,1.3V137.9z"/>
</g>
<polygon points="334.7,135 334.7,148 339.7,148 339.7,146.6 336.1,146.6 336.1,135 "/>
<polygon points="350.3,135 347,140.8 343.7,135 342,135 346.2,142.4 346.2,148 347.7,148 347.7,142.4 351.9,135 "/>
</svg>
